<?xml version="1.0" encoding="utf-8"?>
<!-- Generator: Adobe Illustrator 19.1.0, SVG Export Plug-In . SVG Version: 6.00 Build 0)  -->
<svg version="1.0" id="Layer_1" xmlns="http://www.w3.org/2000/svg" xmlns:xlink="http://www.w3.org/1999/xlink" x="0px" y="0px"
	 viewBox="0 0 249.6 148" enable-background="new 0 0 249.6 148" xml:space="preserve">
<path fill="#F15623" d="M143.3,22.7c0-4.7,2.1-9,5.4-11.9c-6-6.3-14.3-10.3-23.5-10.8c-0.6,0-1.2,0-1.8,0s-1.2,0-1.8,0
	C103.2,1,88.4,16.3,88.4,35c0,23.3,35,58.3,35,58.3s31.7-31.8,34.7-54.9C149.9,37.9,143.3,31.1,143.3,22.7z M141.6,54.1H135v-16
	c0-0.8,0-1.6,0-2.6c0-1,0.1-3.6,0.3-7.8h-0.2l-8.7,26.4h-6.6l-8.1-26.5h-0.2c0.3,5.4,0.4,9,0.4,10.8v15.7h-6.4V20.3h9.7l8,25.8h0.1
	l8.5-25.8h9.7V54.1z"/>
<g>
	<path fill="#F15623" d="M17,135L2.6,99.4H2.4c0.1,2.2,0.2,4.4,0.2,6.7V135H0V96.4h4.2l13.7,33.9H18l13.7-33.9h4.1V135H33v-29.2
		c0-2,0.1-4.1,0.3-6.3h-0.2L18.7,135H17z"/>
	<path fill="#F15623" d="M62.8,135l-0.7-4.5h-0.2c-1.4,1.8-2.9,3.2-4.4,3.9c-1.5,0.8-3.3,1.1-5.4,1.1c-2.8,0-5-0.7-6.6-2.2
		c-1.6-1.4-2.3-3.4-2.3-6c0-2.8,1.2-5,3.5-6.5c2.3-1.5,5.7-2.4,10.1-2.5l5.5-0.2v-1.9c0-2.7-0.6-4.8-1.7-6.2
		c-1.1-1.4-2.9-2.1-5.4-2.1c-2.7,0-5.4,0.7-8.3,2.2l-1-2.3c3.1-1.5,6.3-2.2,9.3-2.2c3.1,0,5.5,0.8,7.1,2.5s2.3,4.2,2.3,7.6V135H62.8
		z M52.2,133.1c3.1,0,5.5-0.9,7.2-2.6c1.8-1.8,2.6-4.2,2.6-7.3v-2.8l-5,0.2c-4,0.2-6.9,0.8-8.6,1.9c-1.7,1.1-2.6,2.7-2.6,5
		c0,1.8,0.5,3.2,1.6,4.2C48.7,132.6,50.2,133.1,52.2,133.1z"/>
	<path fill="#F15623" d="M76.6,122.4l14.6-16.1h3.2l-11.3,12.2L95.3,135h-3.1l-10.9-14.5l-4.7,4.3V135H74V94h2.6v20.6l-0.2,7.9H76.6
		z"/>
	<path fill="#F15623" d="M111.7,135.5c-4.2,0-7.4-1.3-9.7-3.8c-2.3-2.6-3.5-6.2-3.5-10.8c0-4.6,1.1-8.2,3.4-11
		c2.2-2.8,5.3-4.1,9.1-4.1c3.4,0,6,1.2,8,3.5s2.9,5.6,2.9,9.6v2.1h-20.6c0,3.9,1,6.9,2.8,9c1.8,2.1,4.4,3.1,7.7,3.1
		c1.6,0,3.1-0.1,4.3-0.3c1.2-0.2,2.8-0.7,4.7-1.5v2.4c-1.6,0.7-3.1,1.2-4.5,1.4C114.9,135.4,113.4,135.5,111.7,135.5z M110.9,108.1
		c-2.8,0-5,0.9-6.6,2.7c-1.7,1.8-2.6,4.4-2.9,7.9h17.7c0-3.3-0.7-5.9-2.2-7.8C115.5,109,113.5,108.1,110.9,108.1z"/>
	<path fill="#F15623" d="M141.1,105.8c1.2,0,2.5,0.1,3.9,0.4l-0.5,2.5c-1.2-0.3-2.4-0.4-3.7-0.4c-2.4,0-4.4,1-6,3.1
		c-1.6,2.1-2.3,4.7-2.3,7.9V135h-2.6v-28.7h2.2l0.3,5.2h0.2c1.2-2.1,2.4-3.6,3.8-4.4C137.5,106.2,139.2,105.8,141.1,105.8z"/>
	<path fill="#FFFFFF" d="M168.4,135L154,99.4h-0.2c0.1,2.2,0.2,4.4,0.2,6.7V135h-2.6V96.4h4.2l13.7,33.9h0.2l13.7-33.9h4.1V135h-2.7
		v-29.2c0-2,0.1-4.1,0.3-6.3h-0.2L170.1,135H168.4z"/>
	<path fill="#FFFFFF" d="M214.2,135l-0.7-4.5h-0.2c-1.4,1.8-2.9,3.2-4.4,3.9c-1.5,0.8-3.3,1.1-5.4,1.1c-2.8,0-5-0.7-6.6-2.2
		c-1.6-1.4-2.3-3.4-2.3-6c0-2.8,1.2-5,3.5-6.5c2.3-1.5,5.7-2.4,10.1-2.5l5.5-0.2v-1.9c0-2.7-0.6-4.8-1.7-6.2
		c-1.1-1.4-2.9-2.1-5.4-2.1c-2.7,0-5.4,0.7-8.3,2.2l-1-2.3c3.1-1.5,6.3-2.2,9.3-2.2c3.1,0,5.5,0.8,7.1,2.5s2.3,4.2,2.3,7.6V135
		H214.2z M203.7,133.1c3.1,0,5.5-0.9,7.2-2.6c1.8-1.8,2.7-4.2,2.7-7.3v-2.8l-5,0.2c-4,0.2-6.9,0.8-8.6,1.9c-1.7,1.1-2.6,2.7-2.6,5
		c0,1.8,0.5,3.2,1.6,4.2C200.1,132.6,201.7,133.1,203.7,133.1z"/>
	<path fill="#FFFFFF" d="M237.7,135.5c-4.4,0-7.6-1.7-9.7-5h-0.2l0.1,2.2c0.1,1.3,0.1,2.7,0.1,4.3V148h-2.6v-41.6h2.2l0.5,4.1h0.2
		c2-3.1,5.1-4.6,9.4-4.6c3.9,0,6.8,1.3,8.8,3.8c2,2.5,3,6.2,3,11.1c0,4.7-1.1,8.4-3.2,11C244.3,134.2,241.4,135.5,237.7,135.5z
		 M237.6,133.2c2.9,0,5.2-1.1,6.8-3.3s2.4-5.2,2.4-9.1c0-8.4-3-12.6-9.1-12.6c-3.3,0-5.8,0.9-7.4,2.8c-1.6,1.8-2.3,4.8-2.3,9v0.8
		c0,4.5,0.8,7.7,2.3,9.6C231.8,132.2,234.3,133.2,237.6,133.2z"/>
</g>
<path fill="#FFFFFF" d="M159.1,6.9c-4,0-7.6,1.5-10.3,3.9c-3.3,2.9-5.4,7.1-5.4,11.9c0,8.4,6.6,15.2,14.9,15.7c0.3,0,0.6,0,0.9,0
	c8.7,0,15.8-7.1,15.8-15.7C174.8,14,167.8,6.9,159.1,6.9z M169.3,30.4h-4.2v-7.4c0-0.4,0-0.8,0-1.3c0-0.5,0.1-1.6,0.2-3.4h-0.1
	l-3.4,12.1h-3.6h-0.7L154,18.3h-0.1c0.2,2.1,0.2,3.7,0.2,4.8v7.3h-4V13.6h1h5l3.5,12h0.1l3.4-12h6.1V30.4z"/>
<g>
</g>
<g>
</g>
<g>
</g>
<g>
</g>
<g>
</g>
<g>
</g>
</svg>
